<svg width="327" height="179" viewBox="0 0 327 179" fill="none" xmlns="http://www.w3.org/2000/svg">
  <path d="M67.7266 32.5156C76.3203 23.1406 86.1836 15.5234 97.3164 9.66406C108.645 3.80469 120.656 0.875 133.352 0.875C145.461 0.875 155.422 3.51172 163.234 8.78516C171.047 13.8633 176.32 21.5781 179.055 31.9297C190.773 22.5547 202.98 15.0352 215.676 9.37109C228.566 3.70703 241.164 0.875 253.469 0.875C259.914 0.875 265.969 1.46094 271.633 2.63281C277.297 3.80469 282.18 5.66016 286.281 8.19922C290.383 10.543 293.605 13.7656 295.949 17.8672C298.488 21.7734 299.758 26.4609 299.758 31.9297C299.758 36.4219 298.684 40.8164 296.535 45.1133C294.582 49.4102 291.848 53.2188 288.332 56.5391C284.816 59.8594 280.812 62.5938 276.32 64.7422C271.828 66.6953 267.141 67.6719 262.258 67.6719C256.008 67.6719 251.516 66.207 248.781 63.2773C246.047 60.3477 244.68 57.5156 244.68 54.7812C244.68 49.8984 246.145 46.0898 249.074 43.3555C252.199 40.6211 255.617 38.375 259.328 36.6172C263.039 34.6641 266.359 33.0039 269.289 31.6367C272.414 30.0742 273.977 28.2188 273.977 26.0703C273.977 23.7266 273.195 22.0664 271.633 21.0898C270.07 20.1133 268.117 19.625 265.773 19.625C257.375 19.625 248.781 21.6758 239.992 25.7773C231.203 29.6836 222.609 34.957 214.211 41.5977C206.008 48.043 198.195 55.3672 190.773 63.5703C183.547 71.5781 177.199 79.7812 171.73 88.1797C166.262 96.5781 161.867 104.684 158.547 112.496C155.422 120.309 153.859 127.047 153.859 132.711C153.859 138.18 154.934 142.867 157.082 146.773C159.23 150.484 162.258 153.512 166.164 155.855C170.07 158.199 174.758 159.957 180.227 161.129C185.695 162.105 191.75 162.594 198.391 162.594C214.992 162.594 233.254 159.371 253.176 152.926C273.293 146.285 296.828 136.227 323.781 122.75L326.711 129.781C316.945 136.031 305.715 142.184 293.02 148.238C280.324 154.098 267.043 159.371 253.176 164.059C239.504 168.551 225.637 172.164 211.574 174.898C197.512 177.633 184.328 179 172.023 179C157.375 179 145.656 176.656 136.867 171.969C128.078 167.281 122.219 159.664 119.289 149.117C107.766 157.906 95.7539 165.133 83.2539 170.797C70.9492 176.266 58.7422 179 46.6328 179C40.1875 179 34.1328 178.414 28.4688 177.242C22.8047 176.07 17.9219 174.312 13.8203 171.969C9.71875 169.43 6.39844 166.207 3.85938 162.301C1.51562 158.395 0.34375 153.609 0.34375 147.945C0.34375 143.453 1.32031 139.059 3.27344 134.762C5.42188 130.465 8.25391 126.656 11.7695 123.336C15.2852 120.016 19.2891 117.379 23.7812 115.426C28.2734 113.277 32.9609 112.203 37.8438 112.203C44.0938 112.203 48.5859 113.668 51.3203 116.598C54.0547 119.527 55.4219 122.359 55.4219 125.094C55.4219 129.977 53.8594 133.785 50.7344 136.52C47.8047 139.254 44.4844 141.598 40.7734 143.551C37.0625 145.309 33.6445 146.969 30.5195 148.531C27.5898 149.898 26.125 151.656 26.125 153.805C26.125 156.148 26.9062 157.809 28.4688 158.785C30.0312 159.762 31.9844 160.25 34.3281 160.25C42.7266 160.25 51.418 158.102 60.4023 153.805C69.3867 149.508 78.0781 143.844 86.4766 136.812C95.0703 129.781 103.078 121.969 110.5 113.375C118.117 104.586 124.758 95.7969 130.422 87.0078C136.281 78.0234 140.871 69.5273 144.191 61.5195C147.512 53.3164 149.172 46.3828 149.172 40.7188C149.172 30.1719 146.73 22.75 141.848 18.4531C137.16 14.1562 131.398 12.0078 124.562 12.0078C120.461 12.0078 115.969 12.9844 111.086 14.9375C106.398 16.6953 101.711 19.0391 97.0234 21.9688C92.3359 24.8984 87.8438 28.0234 83.5469 31.3438C79.25 34.6641 75.5391 37.7891 72.4141 40.7188L67.7266 32.5156Z" fill="url(#paint0_linear_2338_2)"/>
  <defs>
    <linearGradient id="paint0_linear_2338_2" x1="159.5" y1="-352" x2="159.5" y2="403" gradientUnits="userSpaceOnUse">
      <stop offset="0.46304" stop-color="#BDB0C5"/>
      <stop offset="0.588542" stop-color="#CFB9DD"/>
      <stop offset="0.832097" stop-color="#F6EDFC"/>
    </linearGradient>
  </defs>
</svg>
